<svg width="20" height="20" viewBox="0 0 20 20" fill="none" xmlns="http://www.w3.org/2000/svg">
<g clip-path="url(#clip0_8_171)">
<path d="M0.833328 0.833313H4.16666L6.39999 11.9916C6.4762 12.3753 6.68492 12.7199 6.98962 12.9652C7.29431 13.2105 7.67558 13.3408 8.06666 13.3333H16.1667C16.5577 13.3408 16.939 13.2105 17.2437 12.9652C17.5484 12.7199 17.7571 12.3753 17.8333 11.9916L19.1667 4.99998H4.99999M8.33333 17.5C8.33333 17.9602 7.96023 18.3333 7.49999 18.3333C7.03976 18.3333 6.66666 17.9602 6.66666 17.5C6.66666 17.0397 7.03976 16.6666 7.49999 16.6666C7.96023 16.6666 8.33333 17.0397 8.33333 17.5ZM17.5 17.5C17.5 17.9602 17.1269 18.3333 16.6667 18.3333C16.2064 18.3333 15.8333 17.9602 15.8333 17.5C15.8333 17.0397 16.2064 16.6666 16.6667 16.6666C17.1269 16.6666 17.5 17.0397 17.5 17.5Z" stroke="inherit" stroke-width="2" stroke-linecap="round" stroke-linejoin="round"/>
</g>
<defs>
<clipPath id="clip0_8_171">
<rect width="20" height="20" fill="white"/>
</clipPath>
</defs>
</svg>
