<svg width="100%" height="100%" viewBox="0 0 77 71" fill="none" xmlns="http://www.w3.org/2000/svg">
<path d="M60.5513 58.3548H16.3313C22.2451 64.1422 30.1753 67.3951 38.4415 67.4242C46.7075 67.395 54.6375 64.1421 60.5513 58.3548Z" fill="var(--color-background)"/>
<path d="M38.4415 3.68256C34.2647 3.68252 30.1289 4.50685 26.2701 6.10848C22.4113 7.71012 18.9051 10.0577 15.9516 13.0171C12.9982 15.9766 10.6554 19.49 9.05706 23.3568C7.45867 27.2235 6.63598 31.3679 6.63596 35.5532C6.66077 39.1083 7.27902 42.6342 8.4651 45.9849H68.4174C69.6035 42.6342 70.2218 39.1083 70.2466 35.5532C70.2465 27.1006 66.8956 18.9942 60.931 13.0173C54.9664 7.04039 46.8767 3.68259 38.4415 3.68256Z" fill="var(--color-background)"/>
<path d="M51.0543 32.5899C54.1773 32.5899 56.7089 30.0444 56.7089 26.9044C56.7089 23.7644 54.1773 21.2189 51.0543 21.2189C47.9314 21.2189 45.3998 23.7644 45.3998 26.9044C45.3998 30.0444 47.9314 32.5899 51.0543 32.5899Z" fill="var(--color-secondary)"/>
<path d="M17.7533 37.7263C21.787 40.3772 21.6598 40.9993 30.7765 40.8353C34.1258 40.775 40.534 38.1423 47.7774 37.6535C49.8978 37.567 52.0181 38.092 54.1385 39.3634C56.7788 40.6294 57.6657 42.5221 59.0456 44.2387C56.8082 42.9796 54.966 41.2889 51.7395 41.1098C50.0826 40.9582 48.5312 40.877 47.4503 41.1098C40.6875 42.5117 34.9197 44.6094 31.2387 44.5297C28.3887 44.5391 25.6689 44.0925 23.2056 42.747C21.0223 41.3583 19.0688 39.7906 17.7533 37.7263Z" fill="var(--color-secondary)"/>
<path d="M26.1743 16.5882C30.5907 16.9845 34.9313 17.3871 37.6376 17.926C38.6379 18.1497 38.9405 18.8223 39.2826 19.4696L45.0914 34.5965C45.7249 34.9399 46.2056 35.5799 46.6548 36.0616L35.9413 31.8181C35.3022 31.7202 34.6814 31.6042 34.0907 31.4579H32.1373C31.8468 31.6503 32.7317 29.7999 34.5019 29.3603L37.2778 28.1135L35.1188 22.6596L25.9173 21.5791C23.6553 20.6255 23.6943 17.1986 26.1743 16.5882Z" fill="var(--color-secondary)"/>
<path d="M12.2142 53.252C12.2839 53.252 12.3352 53.2795 12.3682 53.3345C12.4049 53.3858 12.4232 53.4427 12.4232 53.505C12.4232 53.582 12.4104 53.637 12.3847 53.67C12.3627 53.6993 12.3187 53.7305 12.2527 53.7635C12.0987 53.8368 11.9081 53.8955 11.6807 53.9395C11.4534 53.9835 11.2096 54.0055 10.9492 54.0055C10.6229 54.0055 10.3827 53.9505 10.2287 53.8405C10.0784 53.7305 9.9849 53.5985 9.94823 53.4445C9.91523 53.2868 9.89873 53.0815 9.89873 52.8285C9.89873 52.5572 9.90973 52.2913 9.93173 52.031C9.95373 51.767 9.99223 51.4315 10.0472 51.0245C10.0729 50.8485 10.1426 50.722 10.2562 50.645C10.3699 50.5643 10.4946 50.524 10.6302 50.524C10.7439 50.524 10.9291 50.5203 11.1857 50.513L11.6642 50.5075C11.8622 50.5075 12.0052 50.513 12.0932 50.524C12.2032 50.546 12.2839 50.5717 12.3352 50.601C12.3902 50.6267 12.4177 50.6725 12.4177 50.7385C12.4177 50.8118 12.3921 50.8833 12.3407 50.953C12.2931 51.0227 12.2197 51.0575 12.1207 51.0575C12.0071 51.0575 11.8439 51.0502 11.6312 51.0355C11.4186 51.0208 11.2591 51.0135 11.1527 51.0135C11.0611 51.0135 10.9712 51.019 10.8832 51.03C10.7806 51.0373 10.7072 51.0502 10.6632 51.0685C10.6192 51.0868 10.5936 51.118 10.5862 51.162C10.5349 51.5397 10.5092 51.8183 10.5092 51.998C10.5936 52.009 10.6761 52.0145 10.7567 52.0145C10.8594 52.0145 10.9694 52.009 11.0867 51.998C11.2041 51.987 11.2792 51.9797 11.3122 51.976C11.5066 51.9577 11.6734 51.9485 11.8127 51.9485C11.8934 51.9485 11.9539 51.9632 11.9942 51.9925C12.0382 52.0218 12.0602 52.0622 12.0602 52.1135C12.0602 52.1942 12.0382 52.2565 11.9942 52.3005C11.9539 52.3445 11.8806 52.3775 11.7742 52.3995C11.6459 52.4252 11.4864 52.4453 11.2957 52.46C11.1087 52.4747 10.9254 52.482 10.7457 52.482C10.6834 52.482 10.5972 52.4783 10.4872 52.471C10.4762 52.6947 10.4707 52.9018 10.4707 53.0925C10.4707 53.3528 10.6431 53.483 10.9877 53.483C11.1711 53.483 11.3232 53.4702 11.4442 53.4445C11.5652 53.4188 11.7046 53.3822 11.8622 53.3345C12.0089 53.2795 12.1262 53.252 12.2142 53.252ZM15.5184 51.3545C15.3607 51.2408 15.2251 51.1583 15.1114 51.107C14.9977 51.052 14.8657 51.0245 14.7154 51.0245C14.4147 51.0245 14.1562 51.1015 13.9399 51.2555C13.7749 51.3765 13.6521 51.5342 13.5714 51.7285C13.4907 51.9228 13.4504 52.141 13.4504 52.383C13.4504 52.614 13.5036 52.8175 13.6099 52.9935C13.7162 53.1658 13.8537 53.2978 14.0224 53.3895C14.1911 53.4812 14.3671 53.527 14.5504 53.527C14.7337 53.527 14.8914 53.4995 15.0234 53.4445C15.1591 53.3858 15.2672 53.3107 15.3479 53.219C15.4726 53.0613 15.5349 52.8523 15.5349 52.592C15.5349 52.5553 15.5056 52.5297 15.4469 52.515C15.3882 52.5003 15.3039 52.493 15.1939 52.493L14.7979 52.4985C14.6916 52.4985 14.6072 52.4783 14.5449 52.438C14.4826 52.3977 14.4514 52.3463 14.4514 52.284C14.4514 52.196 14.4807 52.1318 14.5394 52.0915C14.5981 52.0475 14.6769 52.0255 14.7759 52.0255C14.8932 52.0255 15.0509 52.0328 15.2489 52.0475C15.4469 52.0622 15.5899 52.0695 15.6779 52.0695C15.8062 52.0695 15.9089 52.1098 15.9859 52.1905C16.0666 52.2712 16.1069 52.3885 16.1069 52.5425C16.1069 52.6855 16.0757 52.8523 16.0134 53.043C15.9511 53.2337 15.8631 53.4042 15.7494 53.5545C15.6394 53.7012 15.4762 53.813 15.2599 53.89C15.0472 53.9633 14.8107 54 14.5504 54C14.3341 54 14.1251 53.9652 13.9234 53.8955C13.7217 53.8258 13.5531 53.7287 13.4174 53.604C13.2487 53.4463 13.1149 53.2593 13.0159 53.043C12.9206 52.823 12.8729 52.6048 12.8729 52.3885C12.8729 52.0732 12.9462 51.767 13.0929 51.47C13.2432 51.1693 13.4449 50.9365 13.6979 50.7715C13.8079 50.6982 13.9619 50.6377 14.1599 50.59C14.3579 50.5423 14.5394 50.5185 14.7044 50.5185C14.9611 50.5185 15.1866 50.5588 15.3809 50.6395C15.5752 50.7165 15.7237 50.8283 15.8264 50.975C15.8704 51.041 15.8924 51.0997 15.8924 51.151C15.8924 51.2097 15.8667 51.2647 15.8154 51.316C15.7641 51.3673 15.7127 51.393 15.6614 51.393C15.6394 51.393 15.6137 51.3893 15.5844 51.382C15.5551 51.3747 15.5331 51.3655 15.5184 51.3545ZM20.4961 53.054C20.4961 53.2263 20.4594 53.3657 20.3861 53.472C20.3128 53.5783 20.1863 53.6828 20.0066 53.7855C19.8856 53.8588 19.7463 53.9157 19.5886 53.956C19.4309 53.9927 19.2714 54.011 19.1101 54.011C19.0111 54.011 18.8956 53.9927 18.7636 53.956C18.6353 53.9157 18.5308 53.8772 18.4501 53.8405L18.3566 53.758C18.1916 53.6223 18.0761 53.5142 18.0101 53.4335C17.9478 53.3492 17.9166 53.2465 17.9166 53.1255C17.9166 53.0302 17.9386 52.9587 17.9826 52.911C18.0266 52.8633 18.0981 52.8395 18.1971 52.8395C18.2484 52.8395 18.2961 52.856 18.3401 52.889C18.3841 52.922 18.4226 52.9678 18.4556 53.0265C18.5473 53.1878 18.6554 53.307 18.7801 53.384C18.9084 53.4573 19.0588 53.494 19.2311 53.494C19.3924 53.494 19.5556 53.4445 19.7206 53.3455C19.8563 53.2612 19.9241 53.1787 19.9241 53.098C19.9241 52.955 19.8599 52.8358 19.7316 52.7405C19.6069 52.6452 19.4273 52.559 19.1926 52.482C19.0496 52.4307 18.8351 52.3353 18.5491 52.196C18.3548 52.1007 18.2099 51.9833 18.1146 51.844C18.0193 51.7047 17.9716 51.558 17.9716 51.404C17.9716 51.2647 18.0193 51.129 18.1146 50.997C18.2136 50.8613 18.3328 50.7605 18.4721 50.6945C18.5454 50.6578 18.6628 50.6193 18.8241 50.579C18.9854 50.535 19.1064 50.513 19.1871 50.513C19.3374 50.513 19.4676 50.5313 19.5776 50.568C19.6876 50.601 19.7958 50.6487 19.9021 50.711C20.0634 50.8027 20.1826 50.8852 20.2596 50.9585C20.3366 51.0318 20.3751 51.1235 20.3751 51.2335C20.3751 51.2995 20.3494 51.3582 20.2981 51.4095C20.2504 51.4608 20.1661 51.4865 20.0451 51.4865C20.0158 51.4865 19.9864 51.4737 19.9571 51.448C19.9278 51.4223 19.8911 51.3838 19.8471 51.3325C19.7884 51.2555 19.7316 51.2042 19.6766 51.1785C19.6619 51.1748 19.6014 51.151 19.4951 51.107C19.3924 51.063 19.2641 51.041 19.1101 51.041C18.9634 51.041 18.8333 51.0758 18.7196 51.1455C18.6059 51.2115 18.5491 51.3087 18.5491 51.437C18.5491 51.5653 18.6646 51.6698 18.8956 51.7505C19.1413 51.8458 19.3448 51.9283 19.5061 51.998C19.6711 52.0677 19.8306 52.1502 19.9846 52.2455C20.1606 52.3518 20.2889 52.4637 20.3696 52.581C20.4539 52.6983 20.4961 52.856 20.4961 53.054ZM24.701 50.821C24.723 50.744 24.756 50.6817 24.8 50.634C24.844 50.5827 24.8917 50.557 24.943 50.557C25.0677 50.557 25.1575 50.5808 25.2125 50.6285C25.2675 50.6762 25.295 50.7587 25.295 50.876C25.295 50.909 25.2693 51.0025 25.218 51.1565C25.1043 51.5048 24.9797 51.9357 24.844 52.449C24.811 52.5663 24.7835 52.669 24.7615 52.757C24.7432 52.845 24.7267 52.9183 24.712 52.977C24.624 53.3547 24.547 53.6388 24.481 53.8295C24.459 53.8845 24.4205 53.9285 24.3655 53.9615C24.3105 53.9908 24.2518 54.0055 24.1895 54.0055C24.1272 54.0055 24.0648 53.9927 24.0025 53.967C23.9438 53.9377 23.9017 53.9047 23.876 53.868C23.788 53.6957 23.656 53.384 23.48 52.933C23.3077 52.482 23.172 52.0988 23.073 51.7835C22.9007 52.2272 22.721 52.7478 22.534 53.3455C22.4607 53.5838 22.4093 53.7452 22.38 53.8295C22.3543 53.8845 22.3177 53.9285 22.27 53.9615C22.2223 53.9908 22.1692 54.0055 22.1105 54.0055C22.0445 54.0055 21.9803 53.9927 21.918 53.967C21.8557 53.9377 21.8135 53.9047 21.7915 53.868C21.7438 53.7873 21.6925 53.6627 21.6375 53.494C21.5862 53.3253 21.5165 53.0888 21.4285 52.7845L21.291 52.317C21.1957 52.0127 21.1132 51.701 21.0435 51.382C20.9738 51.063 20.939 50.8723 20.939 50.81C20.939 50.733 20.9775 50.6725 21.0545 50.6285C21.1315 50.5808 21.2085 50.557 21.2855 50.557C21.3295 50.557 21.3753 50.5717 21.423 50.601C21.4707 50.6267 21.5018 50.6725 21.5165 50.7385C21.6448 51.4242 21.8337 52.2198 22.083 53.1255C22.1857 52.8725 22.336 52.427 22.534 51.789C22.5597 51.7047 22.5982 51.58 22.6495 51.415C22.7045 51.25 22.7503 51.1125 22.787 51.0025C22.8017 50.9475 22.8383 50.9035 22.897 50.8705C22.9593 50.8375 23.0217 50.821 23.084 50.821C23.1647 50.821 23.2307 50.8412 23.282 50.8815C23.3333 50.9218 23.3663 50.9658 23.381 51.0135C23.3883 51.0355 23.4635 51.2885 23.6065 51.7725C23.7495 52.2565 23.9182 52.7075 24.1125 53.1255C24.1858 52.9092 24.2738 52.5627 24.3765 52.086L24.459 51.723C24.558 51.3343 24.6387 51.0337 24.701 50.821ZM26.1391 54.0165C26.0291 54.0165 25.9521 53.9835 25.9081 53.9175C25.8677 53.8515 25.8476 53.758 25.8476 53.637L25.8531 52.922L25.8476 52.812C25.8292 52.4637 25.8201 52.1758 25.8201 51.9485L25.8421 51.294L25.8476 50.964C25.8476 50.854 25.8512 50.7697 25.8586 50.711C25.8659 50.6523 25.8897 50.6047 25.9301 50.568C25.9704 50.5313 26.0346 50.513 26.1226 50.513C26.2326 50.513 26.3114 50.5405 26.3591 50.5955C26.4067 50.6468 26.4306 50.7367 26.4306 50.865L26.4251 50.9805C26.4104 51.2738 26.4031 51.4957 26.4031 51.646C26.4031 51.811 26.4067 52.0053 26.4141 52.229C26.4214 52.449 26.4269 52.6048 26.4306 52.6965C26.4489 53.0888 26.4581 53.4262 26.4581 53.7085C26.4581 53.8185 26.4342 53.8973 26.3866 53.945C26.3426 53.9927 26.2601 54.0165 26.1391 54.0165ZM30.4223 50.524C30.4736 50.524 30.536 50.5588 30.6093 50.6285C30.6863 50.6945 30.7248 50.7513 30.7248 50.799C30.7248 51.0227 30.7175 51.3288 30.7028 51.7175C30.6991 51.8128 30.6955 51.9283 30.6918 52.064C30.6881 52.196 30.6863 52.35 30.6863 52.526C30.6863 53.0833 30.7193 53.494 30.7853 53.758C30.7816 53.846 30.7468 53.9102 30.6808 53.9505C30.6148 53.9872 30.5488 54.0055 30.4828 54.0055C30.3361 54.0055 30.2389 53.9542 30.1913 53.8515C30.1473 53.7488 30.1253 53.6022 30.1253 53.4115C30.1253 52.7038 30.1326 52.053 30.1473 51.459C29.7256 51.9283 29.3975 52.3225 29.1628 52.6415C29.1628 52.6415 29.1298 52.6635 29.0638 52.7075C29.0014 52.7625 28.9501 52.79 28.9098 52.79C28.8144 52.79 28.7356 52.7662 28.6733 52.7185C28.6109 52.6708 28.5504 52.6012 28.4918 52.5095L28.2278 52.1355C28.0444 51.8788 27.9106 51.6845 27.8263 51.5525C27.8263 51.8898 27.8428 52.3482 27.8758 52.9275C27.9014 53.2612 27.9143 53.5123 27.9143 53.681C27.9143 53.769 27.8923 53.8442 27.8483 53.9065C27.8043 53.9652 27.7346 53.9945 27.6393 53.9945C27.5439 53.9945 27.4651 53.9762 27.4028 53.9395C27.3441 53.9028 27.3129 53.8478 27.3093 53.7745C27.3129 53.7122 27.3148 53.6095 27.3148 53.4665C27.3148 53.1805 27.3056 52.8322 27.2873 52.4215L27.2763 52.1245L27.2653 51.7395C27.2616 51.6258 27.2579 51.4938 27.2543 51.3435C27.2506 51.1895 27.2488 51.0227 27.2488 50.843C27.2488 50.623 27.3679 50.513 27.6063 50.513C27.6796 50.513 27.7529 50.5313 27.8263 50.568C27.9033 50.6047 27.9601 50.6578 27.9968 50.7275C28.0261 50.8558 28.1343 51.0685 28.3213 51.3655C28.5083 51.6625 28.6916 51.9412 28.8713 52.2015C29.0326 51.9962 29.1646 51.8422 29.2673 51.7395C29.4433 51.5598 29.5881 51.393 29.7018 51.239C29.8191 51.085 29.9456 50.8998 30.0813 50.6835C30.1143 50.6395 30.1619 50.6028 30.2243 50.5735C30.2866 50.5405 30.3526 50.524 30.4223 50.524ZM35.164 50.799C35.164 51.019 35.1567 51.327 35.142 51.723C35.1383 51.8183 35.1347 51.9338 35.131 52.0695C35.1273 52.2015 35.1255 52.3555 35.1255 52.5315C35.1255 53.1072 35.1567 53.5197 35.219 53.769C35.2153 53.8607 35.1805 53.9267 35.1145 53.967C35.0485 54.0037 34.9807 54.022 34.911 54.022C34.768 54.022 34.6727 53.9707 34.625 53.868C34.581 53.7617 34.559 53.6132 34.559 53.4225C34.559 52.7148 34.57 52.0603 34.592 51.459C34.5223 51.5983 34.4563 51.7523 34.394 51.921C34.3353 52.086 34.2565 52.317 34.1575 52.614C34.0548 52.9367 33.9668 53.1915 33.8935 53.3785C33.8238 53.5655 33.7505 53.7103 33.6735 53.813C33.6515 53.824 33.6075 53.846 33.5415 53.879C33.4792 53.9083 33.4242 53.923 33.3765 53.923C33.2995 53.923 33.2445 53.9102 33.2115 53.8845C33.1785 53.8588 33.1492 53.8222 33.1235 53.7745C33.0978 53.7268 33.0758 53.6883 33.0575 53.659C32.9988 53.571 32.9237 53.4262 32.832 53.2245C32.7403 53.0228 32.656 52.812 32.579 52.592C32.5497 52.515 32.5222 52.4417 32.4965 52.372C32.4745 52.2987 32.4525 52.2308 32.4305 52.1685C32.3865 52.0365 32.3425 51.9137 32.2985 51.8C32.2582 51.6827 32.2233 51.6002 32.194 51.5525C32.194 51.7468 32.1885 51.9412 32.1775 52.1355C32.1702 52.3702 32.1665 52.5388 32.1665 52.6415C32.1665 52.7148 32.1702 52.8138 32.1775 52.9385C32.1995 53.3198 32.2105 53.571 32.2105 53.692C32.2105 53.78 32.1885 53.8552 32.1445 53.9175C32.1005 53.9798 32.0327 54.011 31.941 54.011C31.842 54.011 31.7613 53.9927 31.699 53.956C31.6403 53.9157 31.6092 53.857 31.6055 53.78C31.6092 53.7177 31.611 53.6168 31.611 53.4775C31.611 53.1952 31.6 52.746 31.578 52.13L31.5725 51.932C31.5725 51.7927 31.5798 51.5947 31.5945 51.338C31.5982 51.2757 31.6018 51.2023 31.6055 51.118C31.6092 51.0337 31.611 50.942 31.611 50.843C31.611 50.7293 31.6495 50.6468 31.7265 50.5955C31.8035 50.5405 31.9025 50.513 32.0235 50.513C32.0968 50.513 32.1702 50.5313 32.2435 50.568C32.3205 50.6047 32.3773 50.6578 32.414 50.7275C32.4873 50.8778 32.5607 51.0557 32.634 51.261C32.7073 51.4627 32.8063 51.7505 32.931 52.1245C33.0483 52.4802 33.1418 52.7515 33.2115 52.9385C33.2812 53.1218 33.3398 53.2465 33.3875 53.3125L33.514 52.9385C33.9283 51.6735 34.207 50.9255 34.35 50.6945C34.383 50.6505 34.4398 50.612 34.5205 50.579C34.6048 50.5423 34.6837 50.524 34.757 50.524C34.812 50.524 34.8927 50.5588 34.999 50.6285C35.109 50.6945 35.164 50.7513 35.164 50.799ZM36.8945 50.964C36.8799 51.2793 36.8725 51.5048 36.8725 51.6405C36.8725 51.9375 36.8817 52.2657 36.9 52.625C36.9147 53.0503 36.922 53.3657 36.922 53.571C37.0614 53.5527 37.1457 53.5435 37.175 53.5435C37.2557 53.5435 37.3199 53.5637 37.3675 53.604C37.4152 53.6443 37.439 53.7067 37.439 53.791C37.439 53.846 37.417 53.8882 37.373 53.9175C37.329 53.9468 37.252 53.9688 37.142 53.9835C37.0357 53.9945 36.8799 54 36.6745 54C36.4472 54 36.2767 53.9927 36.163 53.978C36.0494 53.9633 35.9705 53.9358 35.9265 53.8955C35.8825 53.8515 35.8605 53.7873 35.8605 53.703C35.8605 53.6407 35.8807 53.5985 35.921 53.5765C35.9614 53.5545 36.0182 53.5435 36.0915 53.5435L36.207 53.549L36.3885 53.56L36.361 52.911C36.339 52.559 36.328 52.2363 36.328 51.943C36.328 51.7853 36.3335 51.569 36.3445 51.294L36.3555 50.9915C36.2309 50.9988 36.1337 51.0025 36.064 51.0025C35.9834 51.0025 35.9284 50.9878 35.899 50.9585C35.8734 50.9292 35.8605 50.8687 35.8605 50.777C35.8605 50.6743 35.9302 50.6083 36.0695 50.579C36.2125 50.5497 36.4289 50.535 36.7185 50.535C36.9422 50.535 37.109 50.5423 37.219 50.557C37.3327 50.5717 37.3895 50.6047 37.3895 50.656C37.3895 50.7807 37.362 50.8632 37.307 50.9035C37.2557 50.9402 37.1549 50.9585 37.0045 50.9585L36.8945 50.964ZM40.3598 50.909C40.3598 50.8027 40.3836 50.711 40.4313 50.634C40.4826 50.5533 40.5578 50.513 40.6568 50.513C40.7411 50.513 40.8163 50.5295 40.8823 50.5625C40.9483 50.5955 40.9813 50.6505 40.9813 50.7275C40.9813 50.8778 40.974 51.0887 40.9593 51.36C40.9446 51.624 40.9373 51.8202 40.9373 51.9485C40.9373 52.1502 40.9446 52.4197 40.9593 52.757C40.974 53.0797 40.9813 53.3162 40.9813 53.4665C40.9813 53.5875 40.9795 53.6773 40.9758 53.736C40.9758 53.7947 40.9428 53.8533 40.8768 53.912C40.8145 53.967 40.7173 53.9945 40.5853 53.9945C40.5156 53.9945 40.4551 53.9835 40.4038 53.9615C40.3561 53.9358 40.3231 53.9083 40.3048 53.879C40.1325 53.67 39.8813 53.3143 39.5513 52.812C39.181 52.251 38.8785 51.822 38.6438 51.525C38.6731 51.789 38.6878 52.1117 38.6878 52.493C38.6878 52.6617 38.6841 52.8817 38.6768 53.153C38.6731 53.4207 38.6658 53.5967 38.6548 53.681C38.6401 53.7873 38.6071 53.8698 38.5558 53.9285C38.5081 53.9835 38.4311 54.011 38.3248 54.011C38.2441 54.011 38.1836 53.989 38.1433 53.945C38.1066 53.8973 38.0846 53.8167 38.0773 53.703C38.0736 53.5527 38.0828 53.3272 38.1048 53.0265C38.1085 52.9788 38.114 52.8963 38.1213 52.779C38.1286 52.6617 38.1323 52.5572 38.1323 52.4655C38.1323 52.2125 38.1195 51.9228 38.0938 51.5965C38.0718 51.2372 38.0608 50.9713 38.0608 50.799C38.0608 50.711 38.092 50.6432 38.1543 50.5955C38.2203 50.5478 38.2955 50.524 38.3798 50.524C38.4531 50.524 38.5301 50.5423 38.6108 50.579C38.9261 50.975 39.3533 51.5653 39.8923 52.35L40.4093 53.142C40.413 53.0833 40.4148 53.0008 40.4148 52.8945C40.4148 52.7075 40.4111 52.5058 40.4038 52.2895C40.3965 52.0732 40.391 51.9265 40.3873 51.8495C40.369 51.4938 40.3598 51.1803 40.3598 50.909ZM44.2967 51.3545C44.1391 51.2408 44.0034 51.1583 43.8897 51.107C43.7761 51.052 43.6441 51.0245 43.4937 51.0245C43.1931 51.0245 42.9346 51.1015 42.7182 51.2555C42.5532 51.3765 42.4304 51.5342 42.3497 51.7285C42.2691 51.9228 42.2287 52.141 42.2287 52.383C42.2287 52.614 42.2819 52.8175 42.3882 52.9935C42.4946 53.1658 42.6321 53.2978 42.8007 53.3895C42.9694 53.4812 43.1454 53.527 43.3287 53.527C43.5121 53.527 43.6697 53.4995 43.8017 53.4445C43.9374 53.3858 44.0456 53.3107 44.1262 53.219C44.2509 53.0613 44.3132 52.8523 44.3132 52.592C44.3132 52.5553 44.2839 52.5297 44.2252 52.515C44.1666 52.5003 44.0822 52.493 43.9722 52.493L43.5762 52.4985C43.4699 52.4985 43.3856 52.4783 43.3232 52.438C43.2609 52.3977 43.2297 52.3463 43.2297 52.284C43.2297 52.196 43.2591 52.1318 43.3177 52.0915C43.3764 52.0475 43.4552 52.0255 43.5542 52.0255C43.6716 52.0255 43.8292 52.0328 44.0272 52.0475C44.2252 52.0622 44.3682 52.0695 44.4562 52.0695C44.5846 52.0695 44.6872 52.1098 44.7642 52.1905C44.8449 52.2712 44.8852 52.3885 44.8852 52.5425C44.8852 52.6855 44.8541 52.8523 44.7917 53.043C44.7294 53.2337 44.6414 53.4042 44.5277 53.5545C44.4177 53.7012 44.2546 53.813 44.0382 53.89C43.8256 53.9633 43.5891 54 43.3287 54C43.1124 54 42.9034 53.9652 42.7017 53.8955C42.5001 53.8258 42.3314 53.7287 42.1957 53.604C42.0271 53.4463 41.8932 53.2593 41.7942 53.043C41.6989 52.823 41.6512 52.6048 41.6512 52.3885C41.6512 52.0732 41.7246 51.767 41.8712 51.47C42.0216 51.1693 42.2232 50.9365 42.4762 50.7715C42.5862 50.6982 42.7402 50.6377 42.9382 50.59C43.1362 50.5423 43.3177 50.5185 43.4827 50.5185C43.7394 50.5185 43.9649 50.5588 44.1592 50.6395C44.3536 50.7165 44.5021 50.8283 44.6047 50.975C44.6487 51.041 44.6707 51.0997 44.6707 51.151C44.6707 51.2097 44.6451 51.2647 44.5937 51.316C44.5424 51.3673 44.4911 51.393 44.4397 51.393C44.4177 51.393 44.3921 51.3893 44.3627 51.382C44.3334 51.3747 44.3114 51.3655 44.2967 51.3545ZM48.1634 52.757C48.0204 52.757 47.8994 52.7533 47.8004 52.746C47.7051 52.735 47.5786 52.7185 47.4209 52.6965L47.4154 53.274C47.4118 53.373 47.4099 53.5142 47.4099 53.6975C47.4099 53.7928 47.3824 53.868 47.3274 53.923C47.2761 53.9743 47.2174 54 47.1514 54C47.0304 54 46.9406 53.9853 46.8819 53.956C46.8233 53.923 46.7939 53.8662 46.7939 53.7855C46.7939 53.6792 46.8031 53.5288 46.8214 53.3345C46.8618 52.9165 46.8819 52.4875 46.8819 52.0475C46.8819 51.6368 46.8691 51.25 46.8434 50.887C46.8471 50.8357 46.8728 50.777 46.9204 50.711C46.9718 50.645 47.0359 50.6083 47.1129 50.601C47.1973 50.601 47.3311 50.5863 47.5144 50.557C47.7051 50.5277 47.8499 50.513 47.9489 50.513C48.2496 50.513 48.4824 50.5423 48.6474 50.601C48.8161 50.6597 48.9848 50.7568 49.1534 50.8925C49.3368 51.1785 49.4284 51.3802 49.4284 51.4975C49.4284 51.7432 49.3789 51.9613 49.2799 52.152C49.1809 52.3427 49.0361 52.4912 48.8454 52.5975C48.6548 52.7038 48.4274 52.757 48.1634 52.757ZM48.0369 50.9805C47.9196 50.9805 47.8169 50.9878 47.7289 51.0025C47.6446 51.0135 47.5419 51.0337 47.4209 51.063C47.4356 51.4003 47.4429 51.646 47.4429 51.8C47.4429 51.9577 47.4374 52.0897 47.4264 52.196C47.5841 52.229 47.7088 52.251 47.8004 52.262C47.8921 52.2693 47.9948 52.273 48.1084 52.273C48.3798 52.273 48.5704 52.2033 48.6804 52.064C48.7941 51.921 48.8509 51.756 48.8509 51.569C48.8509 51.514 48.8344 51.4462 48.8014 51.3655C48.7684 51.2848 48.7391 51.2317 48.7134 51.206C48.6144 51.118 48.5173 51.0593 48.4219 51.03C48.3303 50.997 48.2019 50.9805 48.0369 50.9805ZM52.3725 52.031C52.3689 51.9723 52.367 51.8843 52.367 51.767V51.558C52.367 51.4187 52.3634 51.3142 52.356 51.2445C52.3487 51.1858 52.345 51.0337 52.345 50.788C52.345 50.7 52.3707 50.6322 52.422 50.5845C52.477 50.5332 52.5504 50.5075 52.642 50.5075C52.7594 50.5075 52.8382 50.5332 52.8785 50.5845C52.9189 50.6358 52.939 50.7202 52.939 50.8375V51.0465L52.9335 51.6515C52.9299 51.7688 52.928 51.9448 52.928 52.1795L52.9335 52.6305C52.9372 52.7002 52.939 52.7973 52.939 52.922C52.939 53.021 52.9427 53.1622 52.95 53.3455C52.9574 53.5142 52.961 53.6407 52.961 53.725C52.961 53.7947 52.9409 53.8588 52.9005 53.9175C52.8639 53.9762 52.8125 54.0055 52.7465 54.0055C52.4899 54.0055 52.3615 53.9193 52.3615 53.747C52.3615 53.6517 52.3652 53.5453 52.3725 53.428C52.3799 53.3437 52.3835 53.2153 52.3835 53.043C52.3835 52.922 52.3799 52.7478 52.3725 52.5205C52.2002 52.5352 51.9032 52.5425 51.4815 52.5425C51.2175 52.5425 51.0122 52.5425 50.8655 52.5425C50.7189 52.5388 50.6125 52.5297 50.5465 52.515L50.541 53.1475C50.541 53.1878 50.5502 53.296 50.5685 53.472C50.5869 53.5893 50.596 53.692 50.596 53.78C50.596 53.835 50.563 53.8882 50.497 53.9395C50.4347 53.9872 50.376 54.011 50.321 54.011C50.189 54.011 50.0992 53.9798 50.0515 53.9175C50.0039 53.8515 49.98 53.7525 49.98 53.6205L49.9745 53.186C49.9709 53.1347 49.969 53.0632 49.969 52.9715C49.969 52.8358 49.9654 52.6507 49.958 52.416C49.9507 52.2033 49.947 52.0493 49.947 51.954C49.947 51.811 49.9507 51.6112 49.958 51.3545C49.9654 51.1125 49.969 50.9328 49.969 50.8155C49.969 50.6982 49.9984 50.6193 50.057 50.579C50.1157 50.5387 50.1817 50.5185 50.255 50.5185C50.4604 50.5185 50.563 50.5863 50.563 50.722C50.563 50.964 50.5575 51.195 50.5465 51.415C50.5392 51.6937 50.5355 51.8972 50.5355 52.0255C50.6419 52.0512 50.7537 52.0677 50.871 52.075C50.9884 52.0823 51.1534 52.086 51.366 52.086C51.7987 52.086 52.1342 52.0677 52.3725 52.031ZM55.2676 50.502C55.5133 50.502 55.737 50.5332 55.9386 50.5955C56.1403 50.6542 56.3053 50.7422 56.4336 50.8595C56.6646 51.0685 56.826 51.2977 56.9176 51.547C57.013 51.7927 57.0606 52.108 57.0606 52.493C57.0606 52.5737 57.0496 52.647 57.0276 52.713C57.0093 52.779 56.9781 52.8633 56.9341 52.966C56.8791 53.0797 56.8461 53.1695 56.8351 53.2355C56.7618 53.3638 56.6408 53.4867 56.4721 53.604C56.3071 53.7213 56.1275 53.8167 55.9331 53.89C55.7388 53.9633 55.5683 54 55.4216 54C54.714 54 54.2098 53.758 53.9091 53.274C53.8248 53.1383 53.7588 52.9972 53.7111 52.8505C53.6671 52.7038 53.6451 52.5608 53.6451 52.4215C53.6451 52.0475 53.7111 51.723 53.8431 51.448C53.9788 51.1693 54.1658 50.953 54.4041 50.799C54.5471 50.7147 54.6956 50.645 54.8496 50.59C55.0073 50.5313 55.1466 50.502 55.2676 50.502ZM54.2171 52.438C54.2171 52.636 54.2611 52.7992 54.3491 52.9275C54.4408 53.0558 54.5801 53.1952 54.7671 53.3455C54.9211 53.4042 55.0256 53.4427 55.0806 53.461C55.1356 53.4757 55.198 53.483 55.2676 53.483C55.638 53.483 55.9331 53.3822 56.1531 53.1805C56.3731 52.9788 56.4831 52.702 56.4831 52.35C56.4831 52.0713 56.452 51.8513 56.3896 51.69C56.3273 51.5287 56.2155 51.3838 56.0541 51.2555C55.9698 51.1858 55.8616 51.1345 55.7296 51.1015C55.6013 51.0685 55.462 51.052 55.3116 51.052C55.0843 51.052 54.8881 51.1198 54.7231 51.2555C54.5581 51.3875 54.4316 51.5598 54.3436 51.7725C54.2593 51.9852 54.2171 52.207 54.2171 52.438ZM57.3566 50.7935C57.3566 50.6358 57.4721 50.557 57.7031 50.557C57.8021 50.557 57.991 50.5607 58.2696 50.568C58.5776 50.5827 58.8105 50.59 58.9681 50.59C59.0965 50.59 59.2523 50.5827 59.4356 50.568C59.5603 50.5607 59.6391 50.557 59.6721 50.557C59.8738 50.5643 60.0443 50.601 60.1836 50.667C60.224 50.6853 60.257 50.7073 60.2826 50.733C60.3083 50.7587 60.3211 50.8008 60.3211 50.8595C60.3211 50.9402 60.2955 51.0098 60.2441 51.0685C60.1928 51.1235 60.1305 51.151 60.0571 51.151C59.9765 51.151 59.8591 51.14 59.7051 51.118C59.5695 51.0923 59.4503 51.0795 59.3476 51.0795C59.2486 51.0795 59.1735 51.0813 59.1221 51.085C59.1111 51.206 59.1056 51.4957 59.1056 51.954C59.1056 52.5003 59.1221 53.054 59.1551 53.615L59.1661 53.7745C59.1661 53.9248 59.08 54 58.9076 54C58.772 54 58.6803 53.9688 58.6326 53.9065C58.585 53.8405 58.5611 53.7415 58.5611 53.6095C58.5611 53.3492 58.5538 53.0247 58.5391 52.636C58.5245 52.3133 58.5171 52.0842 58.5171 51.9485C58.5171 51.8568 58.5281 51.5763 58.5501 51.107L57.9066 51.1125C57.7013 51.1125 57.5583 51.0942 57.4776 51.0575C57.397 51.0172 57.3566 50.9292 57.3566 50.7935ZM62.4472 54.0055C62.2052 54.0055 61.9833 53.9762 61.7817 53.9175C61.58 53.8552 61.415 53.7653 61.2867 53.648C61.052 53.439 60.887 53.2117 60.7917 52.966C60.7 52.7167 60.6542 52.3995 60.6542 52.0145C60.6542 51.9338 60.6652 51.8587 60.6872 51.789C60.7128 51.7157 60.7458 51.635 60.7862 51.547C60.7972 51.5213 60.8137 51.481 60.8357 51.426C60.8613 51.3673 60.8778 51.3142 60.8852 51.2665C60.9548 51.1382 61.0722 51.0153 61.2372 50.898C61.4058 50.7807 61.5873 50.6872 61.7817 50.6175C61.976 50.5442 62.1465 50.5075 62.2932 50.5075C63.0008 50.5075 63.5068 50.7495 63.8112 51.2335C63.9835 51.5158 64.0697 51.8 64.0697 52.086C64.0697 52.4563 64.0018 52.7808 63.8662 53.0595C63.7342 53.3382 63.5508 53.5545 63.3162 53.7085C63.1695 53.7965 63.0192 53.868 62.8652 53.923C62.7112 53.978 62.5718 54.0055 62.4472 54.0055ZM61.2262 52.4215C61.2225 52.6232 61.2647 52.79 61.3527 52.922C61.4443 53.0503 61.5873 53.1915 61.7817 53.3455C61.9283 53.4005 62.031 53.4372 62.0897 53.4555C62.1483 53.4738 62.2125 53.483 62.2822 53.483C62.5205 53.483 62.7313 53.4335 62.9147 53.3345C63.098 53.2355 63.2392 53.0998 63.3382 52.9275C63.4408 52.7552 63.4922 52.5627 63.4922 52.35C63.4922 52.0713 63.461 51.8513 63.3987 51.69C63.3363 51.5287 63.2245 51.3838 63.0632 51.2555C62.9788 51.1858 62.8707 51.1345 62.7387 51.1015C62.6103 51.0685 62.4728 51.052 62.3262 51.052C61.9742 51.052 61.701 51.1767 61.5067 51.426C61.316 51.6717 61.2225 52.0035 61.2262 52.4215ZM67.2139 53.054C67.2139 53.2263 67.1772 53.3657 67.1039 53.472C67.0306 53.5783 66.9041 53.6828 66.7244 53.7855C66.6034 53.8588 66.4641 53.9157 66.3064 53.956C66.1487 53.9927 65.9892 54.011 65.8279 54.011C65.7289 54.011 65.6134 53.9927 65.4814 53.956C65.3531 53.9157 65.2486 53.8772 65.1679 53.8405L65.0744 53.758C64.9094 53.6223 64.7939 53.5142 64.7279 53.4335C64.6656 53.3492 64.6344 53.2465 64.6344 53.1255C64.6344 53.0302 64.6564 52.9587 64.7004 52.911C64.7444 52.8633 64.8159 52.8395 64.9149 52.8395C64.9662 52.8395 65.0139 52.856 65.0579 52.889C65.1019 52.922 65.1404 52.9678 65.1734 53.0265C65.2651 53.1878 65.3732 53.307 65.4979 53.384C65.6262 53.4573 65.7766 53.494 65.9489 53.494C66.1102 53.494 66.2734 53.4445 66.4384 53.3455C66.5741 53.2612 66.6419 53.1787 66.6419 53.098C66.6419 52.955 66.5777 52.8358 66.4494 52.7405C66.3247 52.6452 66.1451 52.559 65.9104 52.482C65.7674 52.4307 65.5529 52.3353 65.2669 52.196C65.0726 52.1007 64.9277 51.9833 64.8324 51.844C64.7371 51.7047 64.6894 51.558 64.6894 51.404C64.6894 51.2647 64.7371 51.129 64.8324 50.997C64.9314 50.8613 65.0506 50.7605 65.1899 50.6945C65.2632 50.6578 65.3806 50.6193 65.5419 50.579C65.7032 50.535 65.8242 50.513 65.9049 50.513C66.0552 50.513 66.1854 50.5313 66.2954 50.568C66.4054 50.601 66.5136 50.6487 66.6199 50.711C66.7812 50.8027 66.9004 50.8852 66.9774 50.9585C67.0544 51.0318 67.0929 51.1235 67.0929 51.2335C67.0929 51.2995 67.0672 51.3582 67.0159 51.4095C66.9682 51.4608 66.8839 51.4865 66.7629 51.4865C66.7336 51.4865 66.7042 51.4737 66.6749 51.448C66.6456 51.4223 66.6089 51.3838 66.5649 51.3325C66.5062 51.2555 66.4494 51.2042 66.3944 51.1785C66.3797 51.1748 66.3192 51.151 66.2129 51.107C66.1102 51.063 65.9819 51.041 65.8279 51.041C65.6812 51.041 65.5511 51.0758 65.4374 51.1455C65.3237 51.2115 65.2669 51.3087 65.2669 51.437C65.2669 51.5653 65.3824 51.6698 65.6134 51.7505C65.8591 51.8458 66.0626 51.9283 66.2239 51.998C66.3889 52.0677 66.5484 52.1502 66.7024 52.2455C66.8784 52.3518 67.0067 52.4637 67.0874 52.581C67.1717 52.6983 67.2139 52.856 67.2139 53.054Z" fill="var(--color-background)" stroke="var(--color-background)" />
<path d="M33.8347 62.1564C33.858 62.1564 33.8863 62.1722 33.9197 62.2039C33.9547 62.2339 33.9722 62.2597 33.9722 62.2814C33.9722 62.383 33.9688 62.5222 33.9622 62.6989C33.9605 62.7422 33.9588 62.7947 33.9572 62.8564C33.9555 62.9164 33.9547 62.9864 33.9547 63.0664C33.9547 63.3197 33.9697 63.5064 33.9997 63.6264C33.998 63.6664 33.9822 63.6955 33.9522 63.7139C33.9222 63.7305 33.8922 63.7389 33.8622 63.7389C33.7955 63.7389 33.7513 63.7155 33.7297 63.6689C33.7097 63.6222 33.6997 63.5555 33.6997 63.4689C33.6997 63.1472 33.703 62.8514 33.7097 62.5814C33.518 62.7947 33.3688 62.9739 33.2622 63.1189C33.2622 63.1189 33.2472 63.1289 33.2172 63.1489C33.1888 63.1739 33.1655 63.1864 33.1472 63.1864C33.1038 63.1864 33.068 63.1755 33.0397 63.1539C33.0113 63.1322 32.9838 63.1005 32.9572 63.0589L32.8372 62.8889C32.7538 62.7722 32.693 62.6839 32.6547 62.6239C32.6547 62.7772 32.6622 62.9855 32.6772 63.2489C32.6888 63.4005 32.6947 63.5147 32.6947 63.5914C32.6947 63.6314 32.6847 63.6655 32.6647 63.6939C32.6447 63.7205 32.613 63.7339 32.5697 63.7339C32.5263 63.7339 32.4905 63.7255 32.4622 63.7089C32.4355 63.6922 32.4213 63.6672 32.4197 63.6339C32.4213 63.6055 32.4222 63.5589 32.4222 63.4939C32.4222 63.3639 32.418 63.2055 32.4097 63.0189L32.4047 62.8839L32.3997 62.7089C32.398 62.6572 32.3963 62.5972 32.3947 62.5289C32.393 62.4589 32.3922 62.383 32.3922 62.3014C32.3922 62.2014 32.4463 62.1514 32.5547 62.1514C32.588 62.1514 32.6213 62.1597 32.6547 62.1764C32.6897 62.193 32.7155 62.2172 32.7322 62.2489C32.7455 62.3072 32.7947 62.4039 32.8797 62.5389C32.9647 62.6739 33.048 62.8005 33.1297 62.9189C33.203 62.8255 33.263 62.7555 33.3097 62.7089C33.3897 62.6272 33.4555 62.5514 33.5072 62.4814C33.5605 62.4114 33.618 62.3272 33.6797 62.2289C33.6947 62.2089 33.7163 62.1922 33.7447 62.1789C33.773 62.1639 33.803 62.1564 33.8347 62.1564ZM35.62 63.5014C35.645 63.5014 35.665 63.5122 35.68 63.5339C35.6967 63.5555 35.705 63.5789 35.705 63.6039C35.705 63.6472 35.6883 63.6805 35.655 63.7039C35.6233 63.7255 35.5817 63.7364 35.53 63.7364C35.4533 63.7364 35.3917 63.723 35.345 63.6964C35.2983 63.6697 35.2567 63.6197 35.22 63.5464C35.2083 63.5197 35.1942 63.4764 35.1775 63.4164C35.1625 63.3564 35.1467 63.3089 35.13 63.2739C35.115 63.2372 35.0892 63.2064 35.0525 63.1814C35.0175 63.1564 34.9692 63.143 34.9075 63.1414L34.8525 63.1439C34.7958 63.1472 34.7533 63.1489 34.725 63.1489C34.6917 63.1489 34.66 63.1464 34.63 63.1414C34.6333 63.3614 34.635 63.5297 34.635 63.6464C34.635 63.6764 34.62 63.7014 34.59 63.7214C34.5617 63.7414 34.5292 63.7514 34.4925 63.7514C34.4492 63.7514 34.415 63.7347 34.39 63.7014C34.37 63.6614 34.36 63.6022 34.36 63.5239C34.36 63.4972 34.3617 63.4589 34.365 63.4089L34.3675 63.2989C34.3675 63.1972 34.3717 63.088 34.38 62.9714C34.3867 62.838 34.39 62.7405 34.39 62.6789C34.39 62.6272 34.385 62.558 34.375 62.4714C34.3733 62.4547 34.3708 62.428 34.3675 62.3914C34.3642 62.353 34.3625 62.3189 34.3625 62.2889C34.3625 62.2672 34.3717 62.2472 34.39 62.2289C34.4083 62.2105 34.4267 62.1989 34.445 62.1939C34.5817 62.1722 34.7167 62.1614 34.85 62.1614C35.0667 62.1614 35.2442 62.2022 35.3825 62.2839C35.5208 62.3655 35.59 62.4905 35.59 62.6589C35.59 62.7089 35.5767 62.7614 35.55 62.8164C35.525 62.8697 35.4933 62.9114 35.455 62.9414C35.39 62.998 35.32 63.0347 35.245 63.0514C35.2483 63.0547 35.2667 63.0714 35.3 63.1014C35.3333 63.1314 35.3558 63.163 35.3675 63.1964L35.4 63.2964C35.4283 63.378 35.4508 63.4347 35.4675 63.4664C35.4842 63.4964 35.5058 63.5114 35.5325 63.5114C35.5575 63.5114 35.5725 63.5097 35.5775 63.5064C35.5842 63.503 35.5983 63.5014 35.62 63.5014ZM34.6275 62.9289C34.6775 62.9322 34.7125 62.9339 34.7325 62.9339C34.7625 62.9339 34.8042 62.9322 34.8575 62.9289L34.975 62.9264C35.0267 62.9264 35.08 62.9147 35.135 62.8914C35.19 62.868 35.2358 62.8355 35.2725 62.7939C35.3092 62.7505 35.3275 62.7022 35.3275 62.6489C35.3275 62.5539 35.2892 62.4847 35.2125 62.4414C35.1358 62.398 35.0167 62.3764 34.855 62.3764C34.7933 62.3764 34.7208 62.3847 34.6375 62.4014C34.6408 62.4614 34.6425 62.5047 34.6425 62.5314C34.6425 62.563 34.6408 62.6105 34.6375 62.6739L34.635 62.7464C34.63 62.8164 34.6275 62.8772 34.6275 62.9289ZM37.5918 63.2839C37.5918 63.3622 37.5735 63.4297 37.5368 63.4864C37.5018 63.5414 37.4435 63.5922 37.3618 63.6389C37.3068 63.6722 37.2426 63.6972 37.1693 63.7139C37.096 63.7305 37.0218 63.7389 36.9468 63.7389C36.8701 63.7389 36.7751 63.7139 36.6618 63.6639C36.5801 63.6239 36.5151 63.5764 36.4668 63.5214C36.4201 63.4664 36.3968 63.4064 36.3968 63.3414C36.3968 63.2964 36.4068 63.2639 36.4268 63.2439C36.4468 63.2222 36.4793 63.2114 36.5243 63.2114C36.5476 63.2114 36.5718 63.2214 36.5968 63.2414C36.6218 63.2597 36.6368 63.278 36.6418 63.2964C36.6651 63.3647 36.706 63.4172 36.7643 63.4539C36.8226 63.4889 36.8951 63.5064 36.9818 63.5064C37.0818 63.5064 37.1651 63.488 37.2318 63.4514C37.3001 63.4147 37.3343 63.3655 37.3343 63.3039C37.3343 63.2439 37.2976 63.1905 37.2243 63.1439C37.151 63.0972 37.076 63.0647 36.9993 63.0464C36.8893 63.0164 36.7918 62.9805 36.7068 62.9389C36.6185 62.8955 36.5526 62.8422 36.5093 62.7789C36.466 62.7155 36.4443 62.6489 36.4443 62.5789C36.4443 62.5139 36.4668 62.448 36.5118 62.3814C36.5568 62.313 36.6101 62.2639 36.6718 62.2339C36.7051 62.2172 36.7618 62.1997 36.8418 62.1814C36.9235 62.1614 36.9826 62.1514 37.0193 62.1514C37.066 62.1514 37.1151 62.1572 37.1668 62.1689C37.2185 62.1805 37.2626 62.1972 37.2993 62.2189C37.3726 62.2605 37.4268 62.298 37.4618 62.3314C37.4968 62.3647 37.5143 62.4064 37.5143 62.4564C37.5143 62.4864 37.5026 62.513 37.4793 62.5364C37.4576 62.5597 37.4193 62.5714 37.3643 62.5714C37.351 62.5714 37.3376 62.5655 37.3243 62.5539C37.311 62.5422 37.2943 62.5247 37.2743 62.5014C37.2476 62.4664 37.2218 62.443 37.1968 62.4314C37.1701 62.4214 37.1368 62.4122 37.0968 62.4039C37.0568 62.3939 37.0193 62.3889 36.9843 62.3889C36.9443 62.3889 36.9026 62.3972 36.8593 62.4139C36.816 62.4305 36.7793 62.4547 36.7493 62.4864C36.721 62.5164 36.7068 62.5514 36.7068 62.5914C36.7068 62.6247 36.7218 62.6539 36.7518 62.6789C36.7835 62.7022 36.821 62.7214 36.8643 62.7364C36.9143 62.7564 36.9685 62.7739 37.0268 62.7889C37.1035 62.8122 37.166 62.8339 37.2143 62.8539C37.2643 62.8722 37.3126 62.8955 37.3593 62.9239C37.441 62.9722 37.5001 63.0222 37.5368 63.0739C37.5735 63.1239 37.5918 63.1939 37.5918 63.2839ZM37.7206 62.2789C37.7206 62.2072 37.7731 62.1714 37.8781 62.1714C37.9231 62.1714 38.009 62.173 38.1356 62.1764C38.2756 62.183 38.3815 62.1864 38.4531 62.1864C38.5115 62.1864 38.5823 62.183 38.6656 62.1764C38.7223 62.173 38.7581 62.1714 38.7731 62.1714C38.8648 62.1747 38.9423 62.1914 39.0056 62.2214C39.024 62.2297 39.039 62.2397 39.0506 62.2514C39.0623 62.263 39.0681 62.2822 39.0681 62.3089C39.0681 62.3455 39.0565 62.3772 39.0331 62.4039C39.0098 62.4289 38.9815 62.4414 38.9481 62.4414C38.9115 62.4414 38.8581 62.4364 38.7881 62.4264C38.7265 62.4147 38.6723 62.4089 38.6256 62.4089C38.5806 62.4089 38.5465 62.4097 38.5231 62.4114C38.5181 62.4664 38.5156 62.598 38.5156 62.8064C38.5156 63.0547 38.5231 63.3064 38.5381 63.5614L38.5431 63.6339C38.5431 63.7022 38.504 63.7364 38.4256 63.7364C38.364 63.7364 38.3223 63.7222 38.3006 63.6939C38.279 63.6639 38.2681 63.6189 38.2681 63.5589C38.2681 63.4405 38.2648 63.293 38.2581 63.1164C38.2515 62.9697 38.2481 62.8655 38.2481 62.8039C38.2481 62.7622 38.2531 62.6347 38.2631 62.4214L37.9706 62.4239C37.8773 62.4239 37.8123 62.4155 37.7756 62.3989C37.739 62.3805 37.7206 62.3405 37.7206 62.2789ZM39.537 62.2864C39.537 62.3347 39.5353 62.3989 39.532 62.4789L39.5295 62.6414C39.5295 62.7997 39.5412 62.9322 39.5645 63.0389C39.5978 63.1889 39.6478 63.3047 39.7145 63.3864C39.7762 63.458 39.852 63.4939 39.942 63.4939C40.012 63.4939 40.0745 63.473 40.1295 63.4314C40.1845 63.388 40.227 63.3347 40.257 63.2714C40.307 63.168 40.332 63.0405 40.332 62.8889C40.332 62.7972 40.3262 62.6889 40.3145 62.5639C40.3045 62.4239 40.2995 62.3189 40.2995 62.2489C40.2995 62.2122 40.3212 62.1889 40.3645 62.1789C40.4078 62.1672 40.4528 62.1614 40.4995 62.1614C40.5162 62.1614 40.5353 62.1722 40.557 62.1939C40.5787 62.2155 40.5895 62.2389 40.5895 62.2639C40.5895 62.3139 40.587 62.3614 40.582 62.4064C40.5787 62.4564 40.577 62.4914 40.577 62.5114C40.577 62.5747 40.5803 62.663 40.587 62.7764C40.5887 62.8047 40.5903 62.8389 40.592 62.8789C40.5937 62.9189 40.5945 62.9647 40.5945 63.0164C40.5945 63.1297 40.567 63.243 40.512 63.3564C40.4587 63.468 40.3837 63.5605 40.287 63.6339C40.1903 63.7055 40.0812 63.7414 39.9595 63.7414C39.7728 63.7414 39.627 63.6814 39.522 63.5614C39.417 63.4397 39.3453 63.283 39.307 63.0914C39.2853 62.9814 39.2712 62.8664 39.2645 62.7464C39.2595 62.6264 39.257 62.4655 39.257 62.2639C39.257 62.2372 39.2695 62.2122 39.2945 62.1889C39.3212 62.1655 39.3495 62.1539 39.3795 62.1539C39.4845 62.1539 39.537 62.198 39.537 62.2864ZM40.9547 63.6189C40.9547 63.5639 40.958 63.503 40.9647 63.4364C40.9714 63.3597 40.9747 63.263 40.9747 63.1464C40.9747 62.933 40.9655 62.7272 40.9472 62.5289C40.9372 62.4055 40.9322 62.318 40.9322 62.2664C40.9322 62.2314 40.9497 62.2022 40.9847 62.1789C41.0197 62.1539 41.0555 62.1414 41.0922 62.1414C41.1155 62.1414 41.1439 62.143 41.1772 62.1464C41.2105 62.1497 41.2347 62.1514 41.2497 62.1514C41.6247 62.1514 41.9005 62.2522 42.0772 62.4539C42.1889 62.5839 42.2447 62.7564 42.2447 62.9714C42.2447 63.0614 42.228 63.1522 42.1947 63.2439C42.163 63.3339 42.1172 63.4072 42.0572 63.4639C41.9922 63.5272 41.9305 63.578 41.8722 63.6164C41.8155 63.653 41.738 63.6839 41.6397 63.7089C41.543 63.7339 41.4189 63.7464 41.2672 63.7464C41.1705 63.7464 41.0939 63.7355 41.0372 63.7139C40.9822 63.6922 40.9547 63.6605 40.9547 63.6189ZM41.3622 63.5189C41.4739 63.5189 41.5764 63.4989 41.6697 63.4589C41.763 63.4172 41.838 63.3555 41.8947 63.2739C41.9514 63.1905 41.9797 63.0889 41.9797 62.9689C41.9797 62.8505 41.963 62.7522 41.9297 62.6739C41.8964 62.5939 41.8389 62.5289 41.7572 62.4789C41.6955 62.4405 41.6197 62.413 41.5297 62.3964C41.4397 62.378 41.3314 62.3689 41.2047 62.3689C41.2047 62.3855 41.2064 62.4239 41.2097 62.4839C41.213 62.5405 41.2147 62.588 41.2147 62.6264L41.2172 62.6814C41.2272 62.8547 41.2322 62.9922 41.2322 63.0939C41.2322 63.2539 41.223 63.3922 41.2047 63.5089C41.2447 63.5155 41.2972 63.5189 41.3622 63.5189ZM42.6592 63.7439C42.6092 63.7439 42.5742 63.7289 42.5542 63.6989C42.5359 63.6689 42.5267 63.6264 42.5267 63.5714L42.5292 63.2464L42.5267 63.1964C42.5184 63.038 42.5142 62.9072 42.5142 62.8039L42.5242 62.5064L42.5267 62.3564C42.5267 62.3064 42.5284 62.268 42.5317 62.2414C42.5351 62.2147 42.5459 62.193 42.5642 62.1764C42.5826 62.1597 42.6117 62.1514 42.6517 62.1514C42.7017 62.1514 42.7376 62.1639 42.7592 62.1889C42.7809 62.2122 42.7917 62.253 42.7917 62.3114L42.7892 62.3639C42.7826 62.4972 42.7792 62.598 42.7792 62.6664C42.7792 62.7414 42.7809 62.8297 42.7842 62.9314C42.7876 63.0314 42.7901 63.1022 42.7917 63.1439C42.8001 63.3222 42.8042 63.4755 42.8042 63.6039C42.8042 63.6539 42.7934 63.6897 42.7717 63.7114C42.7517 63.733 42.7142 63.7439 42.6592 63.7439ZM43.8936 62.1464C44.0003 62.1464 44.092 62.1597 44.1686 62.1864C44.247 62.213 44.3161 62.2539 44.3761 62.3089C44.4811 62.4039 44.5545 62.508 44.5961 62.6214C44.6395 62.733 44.6611 62.8764 44.6611 63.0514C44.6611 63.0947 44.6553 63.1355 44.6436 63.1739C44.632 63.2105 44.6145 63.2555 44.5911 63.3089L44.5586 63.3889C44.5353 63.4522 44.487 63.5114 44.4136 63.5664C44.3403 63.6197 44.2578 63.6622 44.1661 63.6939C44.0745 63.7255 43.9911 63.7414 43.9161 63.7414C43.7628 63.7414 43.6286 63.7164 43.5136 63.6664C43.4003 63.6147 43.3061 63.5339 43.2311 63.4239C43.1928 63.3655 43.1628 63.3005 43.1411 63.2289C43.1195 63.1555 43.1086 63.0855 43.1086 63.0189C43.1086 62.8489 43.1386 62.7014 43.1986 62.5764C43.2603 62.4497 43.3453 62.3514 43.4536 62.2814C43.5153 62.2447 43.5886 62.213 43.6736 62.1864C43.7603 62.1597 43.8336 62.1464 43.8936 62.1464ZM43.3736 63.0189C43.3736 63.1055 43.3945 63.1864 43.4361 63.2614C43.4795 63.3347 43.537 63.393 43.6086 63.4364C43.682 63.4797 43.762 63.5014 43.8486 63.5014C44.027 63.5014 44.1628 63.4564 44.2561 63.3664C44.3511 63.2764 44.3986 63.1497 44.3986 62.9864C44.3986 62.8597 44.3845 62.7597 44.3561 62.6864C44.3278 62.613 44.277 62.5472 44.2036 62.4889C44.1636 62.4555 44.1203 62.4322 44.0736 62.4189C44.0286 62.4039 43.9753 62.3964 43.9136 62.3964C43.807 62.3964 43.7128 62.423 43.6311 62.4764C43.5495 62.5297 43.4861 62.6039 43.4411 62.6989C43.3961 62.7939 43.3736 62.9005 43.3736 63.0189Z" fill="var(--color-secondary)"/>
</svg>
