<svg width="20" height="20" viewBox="0 0 20 20" fill="none" xmlns="http://www.w3.org/2000/svg">
<path d="M2.22222 20C1.61111 20 1.08333 19.787 0.638889 19.3611C0.212963 18.9167 0 18.3889 0 17.7778V2.22222C0 1.61111 0.212963 1.09259 0.638889 0.666668C1.08333 0.222223 1.61111 0 2.22222 0H17.7778C18.3889 0 18.9074 0.222223 19.3333 0.666668C19.7778 1.09259 20 1.61111 20 2.22222V17.7778C20 18.3889 19.7778 18.9167 19.3333 19.3611C18.9074 19.787 18.3889 20 17.7778 20H2.22222ZM2.22222 17.7778H17.7778V2.22222H2.22222V17.7778ZM3.33333 15.5556H16.6667L12.5 10L9.16667 14.4444L6.66667 11.1111L3.33333 15.5556ZM2.22222 17.7778V2.22222V17.7778Z" fill="var(--color-secondary)" />
</svg>
